<?xml version="1.0" encoding="utf-8"?>
<!-- Generator: Adobe Illustrator 23.0.1, SVG Export Plug-In . SVG Version: 6.00 Build 0)  -->
<svg version="1.1" id="Layer_1" xmlns="http://www.w3.org/2000/svg" xmlns:xlink="http://www.w3.org/1999/xlink" x="0px" y="0px"
	 viewBox="0 0 500 500" style="enable-background:new 0 0 500 500;" xml:space="preserve">
<style type="text/css">
	.st0{fill:#4A8FE1;}
	.st1{fill:#FEFEFE;}
	.st2{fill:#FDFDFE;}
	.st3{fill:#FDFEFE;}
</style>
<circle class="st0" cx="250" cy="250" r="353.6"/>
<path class="st1" d="M310.8,374.1c10.3-0.6,19.7-1.1,28.7-1.6c6.8,14.9,12.9,19.1,23.5,16.5c5-1.2,8.8-3.8,9.2-9.3
	c0.4-5.2-2.7-8.5-7.3-10c-9-2.9-18.2-5.1-27.1-8.2c-17.2-6.1-24.7-16.4-23.1-31.2c1.4-13.3,13.1-23.4,29.8-25.6
	c10.3-1.4,20.5-1.4,30.6,1c14.2,3.4,22.5,12.3,24.5,28.3c-9.7,0.6-19.2,1.3-28.9,1.9c-2.9-8.5-7.8-13.7-17.2-12.9
	c-5.3,0.5-9.1,2.3-9.9,7.9c1.3,5.5,5.9,6.3,10.2,7.5c9.9,2.8,19.9,5,29.5,8.6c11.8,4.4,19.4,12.9,19.8,26.2
	c0.4,13.8-5.5,24.7-17.8,30.5c-18.8,9-38.5,8.6-57.2,0.1C316.8,398.7,312.2,387.8,310.8,374.1z"/>
<path class="st2" d="M296.2,334.4c-9.2,0.5-18.5,1.1-28.1,1.7c-3-9.7-9.2-14.1-18.9-12.7c-3.9,0.6-7,2.3-7.7,6.4
	c-0.7,4.5,2.4,6.6,6.1,7.6c9.6,2.7,19.4,4.8,28.8,7.9c17,5.7,24.5,15.6,24.1,30.7c-0.4,14.7-9.9,26.7-25.6,31.1
	c-15.3,4.3-30.8,3.9-45.8-1.4c-12.2-4.3-20.3-17.1-20.2-31.7c9.1-0.5,18.4-1,28.4-1.6c2.6,10,7.5,17.7,19.1,17.1
	c6.2-0.3,12-2.2,13-9.2c1-6.8-4.1-9.8-9.7-11.6c-8.5-2.7-17.2-4.5-25.5-7.5c-16.3-6-23.7-16.3-22.5-30c1.2-13.3,12.2-23.6,28.4-26.1
	c12.2-1.9,24.4-2,36.2,1.9C289.1,311.1,296.2,320.9,296.2,334.4z"/>
<path class="st2" d="M170.2,366.6c8.8,2.6,17.3,5.2,25.6,7.7c-0.3,19.3-17.7,34.4-40.2,35.6c-33.3,1.6-53.9-13.6-57.3-42.3
	c-4.1-34.1,9.8-57,37.8-62.4c29.8-5.7,52.5,5.6,59.2,30.7c-8.5,2-16.9,3.9-24.8,5.7c-2.9-0.7-3.3-2.8-4.3-4.4
	c-4.1-7-10.3-9.7-18.2-9.2c-8.1,0.6-13.7,4.9-16.2,12.3c-3.9,11.6-3.6,23.5,0.3,35.1c2.4,7.1,8.3,10.2,15.5,10.7
	c7.1,0.5,13.3-1.6,17.2-8C166.7,374.8,168.1,371.1,170.2,366.6z"/>
<path class="st3" d="M224.3,124.8c-10.6-0.1-12.9,6.2-12.9,14.8c0,11.1,0.6,22.5-11.2,29.9c11.6,7.3,11.4,18.6,11.2,29.8
	c-0.1,8.4,1.3,15.4,12.3,14.6c2,7.5,0.8,14.5,0.9,21.9c-8.8,1.4-16.7,1.2-24.5-1.1c-8.4-2.5-12.7-8.7-13.4-17.2
	c-0.5-6.6-0.3-13.3-0.4-20c-0.1-8.6-2.7-15.4-13.2-16.3c0-7.7,0-15,0-23.2c11.9-0.9,13-9.7,13.1-19.1c0-2.2,0-4.4,0-6.7
	c0.3-25.6,12.1-34.7,38.1-28.8C224.3,110.1,224.3,116.9,224.3,124.8z"/>
<path class="st3" d="M328,158c0,8.3,0,15.4,0,23c-11.4,1.2-13.8,8.7-13.2,18.3c0.1,1.4,0,2.8,0,4.2c0.2,28-8.9,36-37.7,32.3
	c-2.2-6.8-0.7-13.9-0.9-21.5c12,0.5,13.2-7.2,13.3-16c0.1-10.5-0.7-21.5,11-28.6c-11.3-7-10.9-18-11-28.7c-0.1-8.8-1.4-16.5-13-16.2
	c0-7.2,0-13.8,0-20.4c16.2-8.2,35.3,1,37.7,18.4c0.8,5.7,0.7,11.6,0.6,17.4C314.6,149.5,316.9,156.8,328,158z"/>
</svg>
