<?xml version="1.0" encoding="utf-8"?>
<!-- Generator: Adobe Illustrator 23.0.1, SVG Export Plug-In . SVG Version: 6.00 Build 0)  -->
<svg version="1.1" id="Layer_1" xmlns="http://www.w3.org/2000/svg" xmlns:xlink="http://www.w3.org/1999/xlink" x="0px" y="0px"
	 viewBox="0 0 500 500" style="enable-background:new 0 0 500 500;" xml:space="preserve">
<style type="text/css">
	.st0{fill:#F16529;}
	.st1{fill:#FFFFFF;}
	.st2{fill:#E1E1E1;}
</style>
<circle class="st0" cx="250" cy="250" r="353.6"/>
<g>
	<path class="st1" d="M303.6,255.2c0-10.7,0-21.1,0-32.5c23.2-8.4,46.5-16.8,71.5-25.9c-24.8-8.7-48.1-16.9-71.5-25.1
		c0-10.5,0-20.8,0-32.6c35.6,15,70.6,29.6,105.7,44.4c0,9,0,17.6,0,27.1C374.2,225.5,338.9,240.3,303.6,255.2z"/>
	<path class="st1" d="M188.5,138.4c0,11,0,21.4,0,32.7c-22.6,8.2-45.2,16.4-69.4,25.2c24.2,8.6,46.8,16.6,69.4,24.7
		c0,11,0,21.4,0,32.6c-34.8-14.8-69.4-29.4-103.7-44c0-9.4,0-18.1,0-27C119.1,168,153.4,153.3,188.5,138.4z"/>
	<path class="st1" d="M224.7,276.6c-8.8,0-16.9,0-25.9,0c21.3-63.7,42.5-126.8,63.7-190c8.9-2.2,17.1-0.5,26.9-1.3
		C267.6,149.7,246.2,213,224.7,276.6z"/>
	<path class="st2" d="M259.2,349c-3.3-4.3-7-2.5-9.8-3.8c0-3.2,0-5.9,0-9.2c9.9,0,19.9,0,30.3,0c6.6,18.9,13.4,38,20.4,57.9
		c7.1-20.1,14-39.2,20.7-58.1c10.4,0,20,0,30,0c0,3,0,5.7,0,8.9c-1.8,2.9-6.7-0.6-9.4,4.4c0,16.9,0,35.1,0,54
		c2.1,2.7,6.2-0.2,9.4,1.9c0,3,0,5.9,0,9.2c-10.7,0-21.1,0-31.6,0c-2.5-2.5-0.8-5.7-1.1-8.4c1.9-3,5.4-0.4,7.8-2.8
		c0-13.5,0-27.3,0-43.3c-7.1,19-13.5,36.3-19.9,53.5c-3.7,2.2-7.3,1.7-11.5,0.4c-6.4-17.3-12.9-34.7-20.1-54.2c0,15.9,0,29.5,0,43.2
		c1.7,3.1,5.4,0.1,7.5,2.7c0.7,2.7,1,5.7-0.4,8.9c-10.4,0-20.7,0-31.2,0c-2.4-2.7-0.9-5.8-1-8.7c2.7-2.8,6.7-0.3,9.8-2.1
		C259.2,384.8,259.2,366.6,259.2,349z"/>
	<path class="st2" d="M96.6,346.1c-3.2-0.1-6.2-0.3-9-0.4c-1.4-3.5-1.2-6.4-0.2-9.8c10.6,0,21.2,0,32.2,0c0,3.1,0,5.7,0,8.8
		c-1.5,2.6-5.1,0.1-7.6,2.3c0,6.5,0,13.4,0,21c10.3,0,20.9,0,32.2,0c1.9-6.5,0-13.7,0.8-20.1c-2.2-3.6-5.9-0.7-8.1-3.5
		c0-2.3,0-5.1,0-8.4c10.5,0,21.1,0,32,0c2,2.5,0.7,5.6,0.7,8.3c-1.9,2.9-5.6,0.1-7.8,2.8c0,18.4,0,37,0,56.5c2.6,0.3,5.1,0.6,7.8,1
		c0,3.3,0,6,0,9.3c-10.6,0-21.2,0-32.1,0c-1.8-2.7-0.8-5.7-0.6-9.2c2.5-0.4,5-0.8,7.6-1.3c0-7.4,0-14.3,0-21.7
		c-10.8,0-21.4,0-32.5,0c0,6.8,0,13.6,0,21.5c1,2.5,4.7-0.3,7,1.7c1.7,2.6,0.2,5.6,0.8,9.1c-11.3,0-21.9,0-32.6,0
		c-1.3-3.1-1.1-6.1-0.1-9.7c2.9-0.1,5.8-0.3,9.2-0.5C96.6,384.9,96.6,366.2,96.6,346.1z"/>
	<path class="st2" d="M218.6,403.7c2,0.3,4.3,0.7,6.6,1c2.2,2.8,0.4,5.9,1.3,9.4c-11.2,0-21.8,0-33,0c0-2.9,0-5.8,0-8.8
		c1.9-2.5,5.6,0.4,7.4-2.5c0-17.9,0-35.9,0-54.3c-4.4,0-8.4,0-13.3,0c-2.5,1.2,0.2,4.8-2.1,7.3c-3.2,0-6.9,0-11,0
		c0-6.7,0-13.1,0-19.9c23.2,0,46,0,69.5,0c2,6.1,0.4,12.6,0.9,19.2c-3.7,2.2-7.5,0.6-10.5,1.1c-3.4-2.1-0.6-5.8-3.3-8
		c-3.8,0-7.9,0-12.6,0C218.6,366.5,218.6,384.7,218.6,403.7z"/>
	<path class="st2" d="M355.6,414c0-3.2,0-5.9,0-8.4c2.8-2.6,6.2-0.6,9.6-2c0-18.6,0-37.5,0-56.7c-2.4-2.4-5.8-0.1-8.8-1.6
		c-2.2-2.6-0.4-5.7-1.3-9.3c11.1,0,21.6,0,32.5,0c2,2.6,0.8,5.6,0.7,8.4c-2,2.6-5.4,0.5-7.7,2.1c0,18.4,0,36.3,0,54.9
		c7.2,0,14.2,0,21.7,0c2.2-2.3,0-5.7,1.6-8.8c3.2-1.9,6.9-0.7,11.2-0.6c0,7.2,0,14.3,0,22C395.8,414,376.3,414,355.6,414z"/>
</g>
</svg>
