<?xml version="1.0" encoding="utf-8"?>
<!-- Generator: Adobe Illustrator 23.0.1, SVG Export Plug-In . SVG Version: 6.00 Build 0)  -->
<svg version="1.1" id="Layer_1" xmlns="http://www.w3.org/2000/svg" xmlns:xlink="http://www.w3.org/1999/xlink" x="0px" y="0px"
	 viewBox="0 0 500 500" style="enable-background:new 0 0 500 500;" xml:space="preserve">
<style type="text/css">
	.st0{fill:#29AAE1;}
</style>
<g>
	<path class="st0" d="M479.29,124.96c-69.76-0.02-139.52-0.01-209.28-0.01c-7.48,0-7.57,0.1-7.58,7.56c-0.01,39.22,0,78.43,0,117.65
		c0,39.04,0,78.09,0,117.13c0,7.65,0.08,7.75,7.38,7.75c69.93,0.01,139.86,0.02,209.8-0.01c13.14,0,20.36-7.17,20.36-20.3
		c0.03-69.76,0.03-139.52,0-209.28C499.97,132.01,492.83,124.96,479.29,124.96z M462.31,216.36c-0.4,7.32-4.17,11.6-11.38,11.49
		c-5.55-0.08-7.79,2.15-9.55,7.17c-5.36,15.23-14.28,28.42-24.83,40.54c-0.46,0.52-0.96,1-1.42,1.52c-4.93,5.66-4.95,5.87,1.09,10.1
		c4.4,3.08,9,5.89,13.37,9.02c6.22,4.46,7.05,8.48,3.35,15.17c-1.42,2.58-2.79,5.21-4.43,7.65c-3.73,5.59-9.16,6.89-14.83,3.19
		c-7.11-4.65-14.14-9.45-20.86-14.64c-4.05-3.13-6.93-2.83-10.86,0.32c-6.35,5.08-13.11,9.68-19.99,14.04
		c-6.9,4.38-11.93,2.92-16.08-4.03c-1.42-2.38-2.86-4.76-4.06-7.26c-3.29-6.84-2.05-10.79,4.3-14.94
		c5.08-3.32,10.02-6.84,15.11-10.14c3.18-2.06,3.03-3.87,0.6-6.62c-4.35-4.93-8.32-10.19-12.39-15.35
		c-4.07-5.16-3.29-10.48,2.19-14.21c2.86-1.95,5.9-3.66,8.92-5.35c5.83-3.27,9.23-2.67,13.69,2.48c3.17,3.67,6.36,7.34,9.25,11.23
		c2.56,3.43,4.59,3.86,7.81,0.55c7.33-7.55,12.99-16.17,17.83-25.45c1.96-3.75,0.97-4.85-3.04-4.82
		c-13.7,0.11-27.41,0.04-41.11,0.04c-12.66-0.01-25.33,0.04-37.99-0.02c-10.83-0.05-14.42-3.65-14.45-14.32
		c0-1.39-0.02-2.78,0.01-4.16c0.13-8.37,4.15-12.52,12.45-12.57c13.36-0.08,26.71-0.01,40.07-0.05c6.51-0.02,6.93-0.3,6.77-6.73
		c-0.13-5.66,0.18-11.38,6.15-13.65c6.57-2.51,13.71-2.88,20.14,0.67c4.44,2.45,4.89,7.2,4.89,11.89c0.01,7.8,0.08,7.82,7.79,7.83
		c13.01,0.02,26.02-0.03,39.03,0.04c8.08,0.05,12.13,4.01,12.47,12.08C462.43,211.5,462.44,213.94,462.31,216.36z"/>
	<path class="st0" d="M237.56,132.35c0-7.21-0.18-7.39-7.21-7.39c-69.93-0.01-139.86-0.02-209.8,0c-13.43,0-20.53,7.13-20.53,20.66
		c-0.03,69.58-0.03,139.17,0,208.75c0.01,13.53,7.1,20.66,20.53,20.66c69.93,0.02,139.86,0.02,209.8,0c7.04,0,7.21-0.19,7.22-7.39
		c0.01-39.04,0.01-78.09,0.01-117.13C237.57,211.13,237.58,171.74,237.56,132.35z M166.76,324.82c-5.01,0.12-10.04,0.4-15.05-0.46
		c-4.4-0.76-7.18-2.95-8.38-7.36c-1.68-6.19-3.75-12.27-5.39-18.47c-1.1-4.16-3.37-5.96-7.78-5.88c-11.96,0.2-23.93,0.19-35.9,0
		c-4.25-0.07-6.25,1.59-7.18,5.69c-1.34,5.91-3.34,11.67-4.81,17.55c-1.35,5.44-4.73,8.48-10.19,8.78
		c-5.36,0.29-10.78,0.46-16.1-0.04c-8.37-0.79-11.65-5.9-8.97-13.77c14.5-42.69,29.08-85.35,43.68-128
		c2.16-6.32,4.38-7.75,11.21-7.83c3.64-0.04,7.28-0.01,10.93-0.01c3.3,0,6.59-0.02,9.89,0c7.91,0.06,9.82,1.42,12.42,9.1
		c8.03,23.64,16.02,47.3,24.03,70.94c6.12,18.06,12.26,36.11,18.39,54.16C181.05,319.47,177.61,324.56,166.76,324.82z"/>
	<path class="st0" d="M113.34,209.32c2.21,11.89,5.15,22.9,8.43,33.83c1.55,5.14,2.97,10.33,4.58,15.45
		c1.23,3.89,0.4,6.03-4.12,5.96c-6.58-0.1-13.17-0.04-19.76-0.03c-3.28,0.01-5.08-1.27-4.01-4.78c4.93-16.25,9.73-32.53,13.39-49.13
		C111.9,210.37,112.32,210.2,113.34,209.32z"/>
</g>
</svg>
