<?xml version="1.0" encoding="utf-8"?>
<!-- Generator: Adobe Illustrator 23.0.1, SVG Export Plug-In . SVG Version: 6.00 Build 0)  -->
<svg version="1.1" id="Layer_1" xmlns="http://www.w3.org/2000/svg" xmlns:xlink="http://www.w3.org/1999/xlink" x="0px" y="0px"
	 viewBox="0 0 500 500" style="enable-background:new 0 0 500 500;" xml:space="preserve">
<style type="text/css">
	.st0{fill:#FEEE57;}
	.st1{fill:#262626;}
</style>
<g>
	<path d="M500,500c-166.6,0-333.3,0-500,0C0,333.4,0,166.7,0,0c166.6,0,333.2,0,500,0C500,166.6,500,333.3,500,500z"/>
	<path class="st0" d="M479.2,20.9c0,152.8,0,305.3,0,458c-152.7,0-305.2,0-458,0c0-152.6,0-305.1,0-458
		C173.7,20.9,326.1,20.9,479.2,20.9z"/>
	<path class="st1" d="M293.8,399.2c11.7-6.8,23.1-13.4,34.5-20.1c3.5,4.2,6.5,8.6,10.2,12.4c12.7,13,28.2,16.1,45.3,11.6
		c8.5-2.2,15-7.4,16.4-16.7c1.4-9.5-3-16.3-10.8-21.2c-11.1-6.9-23.5-11.1-35.3-16.5c-8.7-4-17.2-8.4-24.8-14.4
		c-19.7-15.5-27.6-41-20.4-65.3c6.5-22.1,26.6-37.4,51.7-39.7c30-2.7,54.6,5.8,70.3,34c-11,7.1-22,14.2-33,21.2
		c-2.8-3.6-5.2-7.1-8-10.1c-7.1-7.6-16.2-9.3-26-7.3c-7.4,1.5-12.7,6-14.2,13.7c-1.7,8.4,0.8,15.5,7.8,20.6
		c7.3,5.3,15.7,8.5,23.9,12c13.4,5.8,26.8,11.7,38.6,20.5c20.1,15.1,26.3,35.7,22.7,59.6c-3.5,23.8-18.2,38.8-40.7,45.1
		c-35,9.8-67.7,5.7-95.1-20.8C301.6,412.7,297.5,406.5,293.8,399.2z"/>
	<path class="st1" d="M141.7,403.8c11.6-7,23-13.9,34.6-21c2.4,3.7,4.7,7.5,7.2,10.9c7.3,9.8,17.5,13.2,29.4,10.1
		c8.1-2.1,12.1-7.9,13.5-15.6c0.8-4.6,1-9.4,1-14.1c0.1-47.4,0-94.7,0-142.5c14.2,0,28.3,0,42.8,0c0.1,1.2,0.2,2.6,0.2,4
		c0,47.7,0.1,95.4,0,143.1c0,17.3-3.4,33.8-16,46.8C223.5,457.6,160.3,445.6,141.7,403.8z"/>
</g>
</svg>
