<?xml version="1.0" encoding="utf-8"?>
<!-- Generator: Adobe Illustrator 23.0.1, SVG Export Plug-In . SVG Version: 6.00 Build 0)  -->
<svg version="1.1" id="Layer_1" xmlns="http://www.w3.org/2000/svg" xmlns:xlink="http://www.w3.org/1999/xlink" x="0px" y="0px"
	 viewBox="0 0 500 500" style="enable-background:new 0 0 500 500;" xml:space="preserve">
<style type="text/css">
	.st0{fill:#CF649A;}
</style>
<path class="st0" d="M430.4,277.8c-17.5,0.1-32.6,4.3-45.3,10.5c-4.7-9.3-9.4-17.4-10.2-23.4c-0.9-7-2-11.3-0.9-19.7
	c1.1-8.4,6-20.3,6-21.3c-0.1-0.9-1.1-5.2-11.1-5.3s-18.8,2-19.7,4.6c-1,2.6-2.9,8.7-4.2,14.9c-1.8,9.2-20.1,41.7-30.6,58.8
	c-3.4-6.6-6.3-12.5-6.9-17.2c-0.9-7-2-11.3-0.9-19.7c1.1-8.4,6-20.3,6-21.3c-0.1-0.9-1.1-5.2-11.1-5.3c-10.1-0.1-18.8,2-19.7,4.6
	c-1,2.6-2.1,8.9-4.2,14.9c-2.1,6.1-26.5,60.4-32.8,74.5c-3.2,7.2-6.1,13-8.1,16.9c-2.1,3.9-0.1,0.3-0.3,0.7
	c-1.8,3.3-2.7,5.2-2.7,5.2v0.1c-1.4,2.4-2.8,4.8-3.5,4.8c-0.5,0-1.5-6.5,0.2-15.5c3.6-18.9,12.4-48.2,12.3-49.3
	c0-0.5,1.7-5.7-5.7-8.3c-7.1-2.6-9.7,1.8-10.3,1.8c-0.6,0-1.1,1.6-1.1,1.6s7.9-33.1-15.1-33.1c-14.5,0-34.4,15.7-44.2,30.1
	c-6.3,3.4-19.5,10.6-33.6,18.4c-5.4,2.9-10.9,6.1-16.2,8.9l-1.1-1.2c-27.9-29.8-79.6-50.9-77.4-90.9c0.8-14.6,5.9-52.9,99.2-99.4
	c76.5-38.1,137.7-27.6,148.4-4.4c15.1,33.2-32.7,94.9-112.2,103.8c-30.3,3.4-46.2-8.3-50.2-12.7c-4.2-4.6-4.8-4.8-6.3-3.9
	c-2.5,1.4-1,5.5,0,7.9c2.3,6.2,12.1,17.1,28.7,22.6c14.6,4.8,50.1,7.4,93.1-9.2c48.1-18.7,85.7-70.4,74.7-113.7
	c-11.2-44-84.3-58.5-153.3-34C118.7,89.1,74.1,112,42.1,142C4,177.5-2,208.6,0.5,221.5c8.9,46,72.3,76,97.7,98.2
	c-1.3,0.7-2.4,1.4-3.5,2c-12.7,6.2-61,31.5-73.2,58.3c-13.7,30.3,2.1,52.1,12.7,55c32.6,9.1,66-7.2,84.1-34.1
	c18-26.9,15.8-61.7,7.5-77.6l-0.3-0.6l10-5.9c6.4-3.8,12.8-7.3,18.4-10.4c-3.1,8.5-5.4,18.6-6.5,33.2c-1.4,17.2,5.7,39.5,14.9,48.2
	c4.1,3.8,9,3.9,12,3.9c10.7,0,15.6-8.9,21-19.5c6.6-13,12.5-28,12.5-28s-7.3,40.7,12.7,40.7c7.3,0,14.6-9.5,18-14.4v0.1
	c0,0,0.2-0.3,0.6-1c0.4-0.6,0.8-1.2,1.2-1.9v-0.2c2.9-5.1,9.5-16.7,19.2-35.9c12.6-24.8,24.7-55.9,24.7-55.9s1.2,7.6,4.8,20.1
	c2.1,7.4,6.8,15.5,10.4,23.4c-2.9,4.1-4.7,6.4-4.7,6.4l0.1,0.1c-2.3,3.1-5,6.4-7.7,9.8c-10,11.9-21.9,25.5-23.4,29.4
	c-1.9,4.6-1.5,8,2.1,10.7c2.6,2,7.3,2.3,12.3,2c9-0.6,15.2-2.8,18.4-4.2c4.9-1.8,10.5-4.4,15.8-8.3c9.8-7.2,15.7-17.5,15.1-31.2
	c-0.3-7.5-2.7-14.9-5.8-22c0.9-1.3,1.8-2.5,2.6-3.9c15.4-22.6,27.3-47.4,27.3-47.4s1.2,7.6,4.8,20.1c1.9,6.3,5.6,13.3,8.9,20.1
	c-14.5,11.8-23.5,25.5-26.7,34.5c-5.8,16.6-1.3,24.1,7.2,25.9c3.8,0.8,9.3-1,13.4-2.7c5.1-1.7,11.2-4.5,16.9-8.7
	c9.8-7.2,19.1-17.3,18.7-30.9c-0.3-6.3-2-12.4-4.2-18.3c12.3-5.1,28.2-8,48.4-5.6c43.5,5.1,52.1,32.2,50.4,43.6
	c-1.7,11.3-10.7,17.6-13.8,19.5c-3,1.9-4,2.5-3.7,3.9c0.4,2.1,1.8,2,4.4,1.6c3.6-0.6,22.9-9.3,23.6-30.2
	C501.1,306.8,475.6,277.5,430.4,277.8L430.4,277.8z M95.2,390.8c-14.4,15.7-34.6,21.7-43.2,16.6c-9.3-5.4-5.7-28.5,12-45.2
	C74.8,352,88.8,342.7,98,336.9c2.1-1.3,5.2-3.1,8.9-5.4c0.6-0.4,1-0.6,1-0.6c0.7-0.4,1.5-0.9,2.2-1.4
	C116.6,353.4,110.4,374.3,95.2,390.8L95.2,390.8z M200.2,319.4c-5,12.2-15.5,43.6-21.9,41.8c-5.5-1.5-8.8-25.2-1.1-48.6
	c3.9-11.8,12.2-25.9,17.1-31.4c7.9-8.8,16.5-11.7,18.7-8.1C215.6,277.8,203.4,311.8,200.2,319.4z M286.9,360.8
	c-2.1,1.1-4.1,1.9-5,1.3c-0.7-0.4,0.9-1.9,0.9-1.9s10.8-11.6,15.1-17c2.4-3.1,5.4-6.7,8.5-10.8v1.2
	C306.4,347.7,292.9,357,286.9,360.8L286.9,360.8z M353.7,345.6c-1.6-1.2-1.4-4.8,3.9-16.1c2.1-4.5,6.7-12,14.8-19.1
	c1,2.9,1.6,5.8,1.5,8.4C373.8,336.3,361.3,342.9,353.7,345.6z"/>
</svg>
